<svg version="1.2" xmlns="http://www.w3.org/2000/svg" viewBox="0 0 1024 1024" width="1024" height="1024">
	<style>
		.s0 { fill: #f4220b } 
	</style>
	<g id="Layer 1">
		<path id="newsly" class="s0" aria-label="newsly"  d="m101.8 580.8q-10.3 0-18.6-8-8.3-8.3-8.3-23.1 0-7.2 1.9-16.3 2-9.2 4.2-18.6 2.5-9.5 4.4-17.8 2-8.3 2-13.6 0-5.5-2.3-8.6-2.2-3.3-5.8-3.3-4.7 0-10.3 5.5l-1.6-1.1q-0.3-4.4 1.9-10.5 2.2-6.1 6.7-11.7 4.7-5.8 11.9-9.7 7.2-3.9 17.2-3.9 14.7 0 21.7 8.6 7.2 8.4 7.2 20.6 0 4.4-0.8 8.6 5.8-8.6 14.4-17.2 8.6-8.9 18.9-14.8 10.5-5.8 21.6-5.8 13.1 0 17.8 8.3 4.7 8.4 4.7 20.9 0 11.6-2.5 24.9-2.5 13.4-5 25.9-2.5 12.2-2.5 20.5 0 11.1 6.4 11.1 3.3 0 5.8-2 2.5-2.2 3.3-4.1l2 0.8q0 10.3-5.8 18.1-5.6 7.7-14.2 12.2-8.6 4.1-17.5 4.1-10.8 0-19.1-7.5-8.4-7.5-8.4-24.4 0-10 2.5-21.6 2.8-11.7 5.3-22.5 2.5-10.8 2.5-17.8 0-4.1-1.7-6.4-1.3-2.5-5.2-2.5-6.4 0-14.2 5.9-7.5 5.8-13 15.5-5.3 9.7-5.3 21.4 0 7.5 1.7 14.4 1.9 7 1.9 15 0 15-7.8 22.8-7.7 7.7-18 7.7zm189.2 1.1q-20.3 0-33.6-8-13.3-8.3-20-21.7-6.6-13.6-6.6-29.1 0-14.7 5.5-29.4 5.9-15 16.7-27.2 11.1-12.2 26.6-19.7 15.8-7.5 35.5-7.5 24.5 0 35.6 11.1 11.3 10.8 11.3 26.4 0 13.3-7.2 24.7-6.9 11.1-18.6 18-11.6 6.7-25.5 6.7-7.2 0-14.7-2.3-7.5-2.2-14.7-6.9 1.4 17.2 10 25 8.6 7.7 20.5 7.7 8.3 0 16.7-3 8.3-3.3 15.2-8.3 7.2-5.3 11.1-11.1l2 1.4q0 14.4-6.1 24.7-5.9 9.9-15.6 16.3-9.7 6.4-21.3 9.5-11.4 2.7-22.8 2.7zm6.4-74.9q8.9 0 14.4-5 5.6-5.3 8.3-12.2 2.8-6.9 2.8-12.2 0-6.4-3.6-10.6-3.6-4.4-10-4.4-5 0-11.1 3.6-5.8 3.6-10.5 12.5-4.8 8.6-6.1 24.1 8.8 4.2 15.8 4.2zm118.1 74.1q-14.5 0-23.6-8.3-8.9-8.6-8.9-26.4 0-8.9 1.9-18.6 2.3-10 4.7-19.4 2.8-9.7 4.8-17.5 1.9-7.8 1.9-12.5 0-4.7-1.9-6.6-2-2.3-4.8-2.3-2.7 0-5.5 2-2.8 1.6-4.7 5.3l-2.2-0.9q0.5-11.4 6.3-19.4 5.9-8.1 14.5-12.2 8.9-4.2 17.7-4.2 7.3 0 13.9 3.1 6.7 2.7 10.6 8.9 4.1 5.8 3.8 14.9-0.2 6.1-2.2 15-1.9 8.9-4.7 19.2-2.5 10-4.4 19.4-2 9.4-2 16.7 0 6.1 1.7 9.7 1.9 3.6 6.4 3.6 4.7 0 12.5-5 7.7-5 15.5-14.4-1.7-15.6-1.7-27.5 0-30.6 8.9-44.2 9.2-13.6 22.8-13.6 10 0 13.6 6.7 3.6 6.7 3.6 17.8 0 16.3-5.6 30.8-5.5 14.4-13 23 0.5 12.5 5 19.4 4.7 7 11.1 7 6.4 0 13-7.2 7-7.3 12-22.2 5-15 5.8-38.1 0.3-18.6-2.5-27.2v-1.3q3.9-6.4 12.2-10.9 8.6-4.7 17.2-4.7 6.1 0 11.1 3.6 5.3 3.3 8.3 12.8 3.1 9.1 2.3 26.6-0.9 24.5-8.1 43-7.2 18.4-18.6 30.9-11.1 12.4-24.1 18.8-13.1 6.4-25.8 6.4-14.5 0-26.4-7.8-11.9-8-18-22.4-12.5 13-25.9 21.6-13 8.6-28.5 8.6zm235 1.4q-17.2 0-28.6-4.7-11.4-4.7-16.9-12-5.6-7.4-5.6-14.9 0-10.6 9.5-18.6 9.4-8.4 25.5-8.4 0 14.2 3.6 22.8 3.6 8.3 9.2 11.9 5.8 3.6 11.1 3.6 6.4 0 10.5-3.6 4.5-3.9 4.5-9.4 0-7.8-8.1-13.6-8-5.8-20.8-13.1-6.4-3.8-13.9-8.8-7.5-5.3-12.7-12.5-5.3-7.5-5.3-17.8 0-10.8 6.1-19.1 6.4-8.4 16.6-13.9 10.3-5.8 22.2-8.6 12-3.1 23.4-3.1 21.3 0 32.2 8.6 10.8 8.6 10.8 18.4 0 8.3-8.3 14.9-8.4 6.7-25.6 6.7 0.3-14.2-5.8-20.5-6.1-6.7-13.1-6.7-5 0-8.3 3.1-3.3 3-3.3 8.8 0 6.7 4.2 11.7 4.4 4.7 10.8 8.6 6.6 3.6 13.6 6.9 9.4 4.5 17.7 9.5 8.4 5 13.6 11.4 5.3 6.3 5.3 15.5 0 12.5-10.3 23.3-9.9 10.6-26.9 17.2-16.9 6.4-36.9 6.4zm122.5-1.4q-7.5 0-14.7-3.6-7-3.9-11.4-12.2-4.5-8.3-4.5-21.7 0-11.1 3.1-26 3-15.3 6.9-32.2 3.9-16.7 7.2-33.3 3.4-17 3.1-29.7 0-12-2.8-17l-0.3-0.8q3.1-8.9 10.9-13.9 7.7-5 16.3-5 9.8 0 17.2 7.5 7.8 7.2 7.8 24.4 0 12-3.6 30-3.6 17.8-7.5 35-4.1 17.7-7.2 32.7-3 15-3 23.9 0 7.8 2.2 10.8 2.2 2.8 5 2.8 3 0 5.8-2.2 2.8-2.5 3.6-4.5l2.2 0.6q-0.3 10-5.8 17.8-5.3 7.7-13.6 12.2-8.1 4.4-16.9 4.4zm110.8 54.4q-13.9 0-22.5-8.3-8.3-8.6-8.3-23.1 0-7.4 2.5-16.3 2.7-9.2 8.8-19.2-13.6-0.8-22.4-9.1-8.6-8.4-8.6-25.3 0-10 2.5-21.4 2.7-11.6 5.2-21.6 2.5-10.3 2.5-15.8 0-4.2-1.6-5.9-1.7-1.9-3.9-1.9-2.2 0-5 1.9-2.5 1.7-3.9 5.3l-4.7-5q1.6-8.6 7.2-15.2 5.6-6.7 13.6-10.6 8-3.9 16.7-3.9 9.7 0 16.9 6.4 7.2 6.1 7.2 22.5 0 10.3-2.5 22.2-2.5 11.6-5 22.2-2.5 10.3-2.5 16.4 0 5.5 2.2 8.3 2.5 2.5 5.6 2.5 3.9 0 8.9-4.2 5-4.4 9.4-14.4 4.4-10 5.8-26.9 0.6-5.3 0.9-13.3 0.2-8.4 0.5-15.3 0.3-7.2 0.3-8.9 0-10 7.2-13.9 7.5-4.1 16.4-4.1 7.7 0 14.7 3 6.9 3.1 9.4 10.3l0.6 1.7q-2.5 2.2-4.5 14.9-1.6 12.8-4.1 34.2-1.7 13.9-4.2 31.3-2.5 17.5-6.9 35.3-4.2 17.5-11.4 32.5-6.9 14.7-17.5 23.8-10.5 8.9-25.5 8.9zm-6.7-31.9q8.6 0 15.3-15.6 6.9-15.8 10.8-44.6-17.8 22.7-24.4 35.8-6.7 13-6.7 18.8 0 5.6 5 5.6z"/>
	</g>
</svg>